<?xml version="1.0" encoding="utf-8"?>
<!-- Generator: Adobe Illustrator 18.1.0, SVG Export Plug-In . SVG Version: 6.00 Build 0)  -->
<svg version="1.1" id="Layer_1" xmlns="http://www.w3.org/2000/svg" xmlns:xlink="http://www.w3.org/1999/xlink" x="0px" y="0px"
	 viewBox="-292 5 1719 1287" enable-background="new -292 5 1719 1287" xml:space="preserve">
<rect x="-294.5" y="1090.3" fill="none" width="1724" height="200"/>
<image display="none" overflow="visible" enable-background="new    " width="900" height="574" xlink:href="2BC0283E.jpeg"  transform="matrix(0.6658 0 0 0.6658 -28.0166 278.3711)">
</image>
<path fill="none" stroke="#000000" stroke-miterlimit="10" d="M-188.8,698.9c58.6-9.3,112.4-49.3,150.2-93
	c31.6-36.5,55.4-76.6,78.8-118.4c22.6-40.4,45.3-80.9,68.9-120.8c1-1.7,18.1-31.1,19.6-30.2c14.6,9.9,47.5,91.7,58.8,113.2
	c39.3,74.3,85.2,148.8,155.5,197.7c60.5,42.1,135.9,69.9,210.3,58.8c47-7,94.7-31.6,132.1-60.4c0,0,197.3-149.4,291.8-309.3
	c0,0,130.7,332.7,346.6,377"/>
<rect x="-188.8" y="712.3" width="1512.6" height="65.2"/>
<rect x="-188.8" y="751.4" fill="#0000FF" width="1512.6" height="15.8"/>
<text transform="matrix(0.959 0 0 1 -191.857 101.1973)" font-family="'CopperplateGothic-Bold'" font-size="60">IRON MAN’S GAUNTLET CONTROLLED DISPLAY</text>
<text transform="matrix(0.85 0 0 1 401.2488 160.6591)" font-family="'CopperplateGothic-Bold'" font-size="36">PRODUCT OF FET LAB</text>
<text transform="matrix(0.85 0 0 1 245.7149 1225.001)" font-family="'CopperplateGothic-Bold'" font-size="48">HCIN - 720 | BALAJI &amp; NATHAN</text>
<rect x="-294.5" y="3.9" fill="none" width="1724" height="200"/>
<polygon points="969.8,1065.5 910.8,1065.5 910.8,706.8 924.5,685.6 924.5,562.7 935,538.2 935,439.8 949.5,416.8 949.5,322.6 
	963,300.1 969.8,300.1 "/>
<polygon points="127,1065.5 68,1065.5 68,706.3 81.7,685 81.7,562 92.2,537.5 92.2,439 106.6,415.9 106.6,321.6 120.2,299 127,299 
	"/>
<polygon points="127,1065.5 186,1065.5 186,706.3 172.3,685 172.3,562 161.8,537.5 161.8,439 147.3,415.9 147.3,321.6 133.8,299 
	127,299 "/>
<polygon points="969.8,1065.5 1028.8,1065.5 1028.8,706.8 1015.1,685.6 1015.1,562.7 1004.6,538.2 1004.6,439.8 990.1,416.8 
	990.1,322.6 976.6,300.1 969.8,300.1 "/>
<rect x="962.7" y="244.3" fill="none" stroke="#FF0000" stroke-width="7.200000e-002" stroke-miterlimit="10" width="14.2" height="821.2"/>
<rect x="120.2" y="244.3" fill="none" stroke="#FF0000" stroke-width="7.200000e-002" stroke-miterlimit="10" width="13.7" height="821.2"/>
<rect x="-188.8" y="751.6" width="1512.6" height="15.8"/>
<rect x="919.4" y="721.6" fill="#0000FF" width="111.8" height="15.8"/>
<rect x="-188.8" y="721.6" width="1512.6" height="15.8"/>
<polygon fill="none" stroke="#FF0000" stroke-width="7.200000e-002" stroke-miterlimit="10" points="-146.3,689.8 -146.3,738.1 
	-160.5,738.1 -160.5,695 "/>
<polygon fill="none" stroke="#FF0000" stroke-width="7.200000e-002" stroke-miterlimit="10" points="-52.8,625.3 -52.8,738.1 
	-66.9,738.1 -66.9,638.9 "/>
<polygon fill="none" stroke="#FF0000" stroke-width="7.200000e-002" stroke-miterlimit="10" points="40.8,492.1 40.8,738.1 
	26.6,738.1 26.6,516.9 "/>
<polygon fill="none" stroke="#FF0000" stroke-width="7.200000e-002" stroke-miterlimit="10" points="227.9,525.6 227.9,738.1 
	213.7,738.1 213.7,502.5 "/>
<polygon fill="none" stroke="#FF0000" stroke-width="7.200000e-002" stroke-miterlimit="10" points="321.9,635 321.9,739 307.7,739 
	307.7,622.6 "/>
<polygon fill="none" stroke="#FF0000" stroke-width="7.200000e-002" stroke-miterlimit="10" points="415.4,690.1 415.4,739 
	401.2,739 401.2,683.9 "/>
<polygon fill="none" stroke="#FF0000" stroke-width="7.200000e-002" stroke-miterlimit="10" points="509,711.2 509,739 494.8,739 
	494.8,710 "/>
<polygon fill="none" stroke="#FF0000" stroke-width="7.200000e-002" stroke-miterlimit="10" points="603.2,695.7 602.5,739 
	588.3,739 588.3,700.8 "/>
<polygon fill="none" stroke="#FF0000" stroke-width="7.200000e-002" stroke-miterlimit="10" points="696.8,640.5 696.1,739 
	681.9,739 681.9,652.1 "/>
<polygon fill="none" stroke="#FF0000" stroke-width="7.200000e-002" stroke-miterlimit="10" points="790.3,560.1 789.6,739 
	775.4,739 775.4,573.7 "/>
<polygon fill="none" stroke="#FF0000" stroke-width="7.200000e-002" stroke-miterlimit="10" points="883.9,465.4 883.1,739 869,739 
	869,481.7 "/>
<polygon fill="none" stroke="#FF0000" stroke-width="7.200000e-002" stroke-miterlimit="10" points="1071.2,515.8 1070.4,739 
	1056.3,739 1056.3,493.3 "/>
<polygon fill="none" stroke="#FF0000" stroke-width="7.200000e-002" stroke-miterlimit="10" points="1164.7,627 1164,739 
	1149.8,739 1149.8,612.6 "/>
<polygon fill="none" stroke="#FF0000" stroke-width="7.200000e-002" stroke-miterlimit="10" points="1258.2,693.5 1257.5,739 
	1243.3,739 1243.3,685.9 "/>
<rect x="-188.8" y="737.4" fill="#FFFFFF" stroke="#FF0000" stroke-width="7.200000e-002" stroke-miterlimit="10" width="1512.6" height="14.2"/>
<line fill="none" stroke="#000000" stroke-miterlimit="10" x1="-292" y1="1132.4" x2="1427" y2="1132.4"/>
</svg>
